<?xml version="1.0" encoding="UTF-8" standalone="no"?>
<!-- Generator: Adobe Illustrator 16.0.0, SVG Export Plug-In . SVG Version: 6.00 Build 0)  -->

<svg
   xmlns:dc="http://purl.org/dc/elements/1.1/"
   xmlns:cc="http://creativecommons.org/ns#"
   xmlns:rdf="http://www.w3.org/1999/02/22-rdf-syntax-ns#"
   xmlns:svg="http://www.w3.org/2000/svg"
   xmlns="http://www.w3.org/2000/svg"
   xmlns:sodipodi="http://sodipodi.sourceforge.net/DTD/sodipodi-0.dtd"
   xmlns:inkscape="http://www.inkscape.org/namespaces/inkscape"
   version="1.1"
   id="Layer_1"
   x="0px"
   y="0px"
   width="26.230202"
   height="27.067982"
   viewBox="0 0 26.230203 27.067981"
   xml:space="preserve"
   sodipodi:docname="bus_tiny.svg"
   inkscape:version="0.92.4 (5da689c313, 2019-01-14)"><metadata
   id="metadata30544"><rdf:RDF><cc:Work
       rdf:about=""><dc:format>image/svg+xml</dc:format><dc:type
         rdf:resource="http://purl.org/dc/dcmitype/StillImage" /><dc:title></dc:title></cc:Work></rdf:RDF></metadata><defs
   id="defs30542" /><sodipodi:namedview
   pagecolor="#ffffff"
   bordercolor="#666666"
   borderopacity="1"
   objecttolerance="10"
   gridtolerance="10"
   guidetolerance="10"
   inkscape:pageopacity="0"
   inkscape:pageshadow="2"
   inkscape:window-width="1912"
   inkscape:window-height="1022"
   id="namedview30540"
   showgrid="false"
   inkscape:zoom="1.6268345"
   inkscape:cx="-108.28581"
   inkscape:cy="13.534482"
   inkscape:window-x="0"
   inkscape:window-y="24"
   inkscape:window-maximized="0"
   inkscape:current-layer="Layer_1" />

<g
   id="g31093"
   transform="scale(0.18658824)"><ellipse
     id="ellipse30531"
     ry="69.533997"
     rx="67.289001"
     cy="72.533997"
     cx="70.289001"
     style="fill:#9c5cdf;stroke:#000000;stroke-width:6;stroke-miterlimit:10" /><g
     id="g30537">
	<g
   id="g30535">
		<path
   id="path30533"
   d="m 30.52,53.817 h 2.598 V 69.856 H 30.52 c -1.437,0 -2.599,-1.189 -2.599,-2.672 V 56.489 c 0,-1.47 1.162,-2.672 2.599,-2.672 z m 77.937,0 h -2.599 v 16.039 h 2.599 c 1.438,0 2.6,-1.189 2.6,-2.672 V 56.489 c -0.001,-1.47 -1.161,-2.672 -2.6,-2.672 z m -7.793,-5.346 v 48.124 c 0,2.956 -2.323,5.347 -5.194,5.347 v 5.347 c 0,2.958 -2.323,5.347 -5.196,5.347 h -5.197 c -2.875,0 -5.196,-2.395 -5.196,-5.347 v -5.347 H 59.098 v 5.347 c 0,2.958 -2.324,5.347 -5.196,5.347 h -5.194 c -2.873,0 -5.196,-2.395 -5.196,-5.347 v -5.347 c -2.872,0 -5.197,-2.395 -5.197,-5.347 V 48.471 c -0.002,-8.856 6.982,-16.04 15.587,-16.04 h 31.176 c 8.603,0 15.586,7.182 15.586,16.04 z M 59.098,43.125 H 79.882 V 37.778 H 59.098 Z m -5.196,48.124 c 0,-2.959 -2.324,-5.346 -5.194,-5.346 -2.872,0 -5.196,2.39 -5.196,5.346 0,2.954 2.324,5.348 5.196,5.348 2.869,-10e-4 5.194,-2.397 5.194,-5.348 z m 41.567,0 c 0,-2.959 -2.323,-5.346 -5.196,-5.346 -2.876,0 -5.197,2.39 -5.197,5.346 0,2.954 2.327,5.348 5.197,5.348 2.873,-10e-4 5.196,-2.397 5.196,-5.348 z m 0,-42.778 h -51.96 v 32.083 h 51.96 z"
   inkscape:connector-curvature="0" />
	</g>
</g></g>
</svg>