<?xml version="1.0" encoding="UTF-8" standalone="no"?>
<svg
   xmlns:dc="http://purl.org/dc/elements/1.1/"
   xmlns:cc="http://creativecommons.org/ns#"
   xmlns:rdf="http://www.w3.org/1999/02/22-rdf-syntax-ns#"
   xmlns:svg="http://www.w3.org/2000/svg"
   xmlns="http://www.w3.org/2000/svg"
   height="29.622709"
   width="29.583336"
   xml:space="preserve"
   enable-background="new 0 0 64 64"
   viewBox="0 0 29.583336 29.622709"
   y="0px"
   x="0px"
   id="Layer_1"
   version="1.1"><metadata
   id="metadata12096"><rdf:RDF><cc:Work
       rdf:about=""><dc:format>image/svg+xml</dc:format><dc:type
         rdf:resource="http://purl.org/dc/dcmitype/StillImage" /><dc:title></dc:title></cc:Work></rdf:RDF></metadata><defs
   id="defs12094">
	
	
</defs>
<path
   style="fill:#6ac259;fill-opacity:1"
   d="m 26.201378,19.309577 c -0.672184,-0.67231 -1.565039,-1.043675 -2.514923,-1.045517 -0.950285,2.72e-4 -1.844748,0.368421 -2.517978,1.040744 -0.543925,0.540248 -1.265546,0.839398 -2.031025,0.839668 -0.755938,-0.0017 -1.495683,-0.30947 -2.029966,-0.844079 l -6.767355,-6.784594 c -0.5493581,-0.55039 -0.8512891,-1.281267 -0.8500161,-2.058503 0.0014,-0.777268 0.304813,-1.507543 0.8561841,-2.0571688 1.373204,-1.3712242 1.375435,-3.6043627 0.0061,-4.978108 L 7.9448909,1.0085718 C 7.2972889,0.3594147 6.4360709,0.0019311 5.5198187,0 4.6013733,8.245e-4 3.7387836,0.3562432 3.0940416,1.0016062 L 2.4043386,1.6871879 C 1.1631265,2.9284056 0.34084401,4.5669722 0.09126781,6.3027213 -0.31346669,9.1186306 0.64352881,12.002017 2.6516734,14.015395 L 15.554117,26.949249 c 2.013837,2.018646 4.903702,2.984872 7.728799,2.584457 0.41092,-0.05867 0.816361,-0.148394 1.21348,-0.269244 1.268664,-0.386067 2.441781,-1.082986 3.384024,-2.021985 l 0.695493,-0.69337 c 0.649215,-0.64766 1.006732,-1.508848 1.007416,-2.425759 0.0018,-0.916226 -0.354151,-1.777598 -1.001603,-2.425783 z m 1.382531,4.811731 c -0.0011,0.38217 -0.149836,0.741756 -0.41857,1.009383 l -0.696752,0.695807 c -0.933103,0.929002 -2.162737,1.544122 -3.467733,1.72697 -2.204693,0.312597 -4.459446,-0.441643 -6.031197,-2.017106 L 4.0672182,12.602515 C 2.5012384,11.032433 1.7548306,8.7842257 2.0703338,6.5874138 2.2596043,5.2772546 2.8804024,4.0400335 3.8164343,3.1039788 L 4.5061187,2.4183957 C 4.6732403,2.2499966 4.8754738,2.1293538 5.0968514,2.0619956 5.2313707,2.0210696 5.3722227,2.0006686 5.5170452,2.0004986 5.8989254,2.0006258 6.2589289,2.1504082 6.5279699,2.4206861 l 2.408712,2.414086 c 0.590712,0.5929748 0.589507,1.5579626 -0.005,2.1502055 -0.928116,0.9254296 -1.44091,2.1584951 -1.44179,3.4704804 -0.0012,1.311029 0.508133,2.545325 1.434635,3.472972 l 6.7676401,6.785656 c 0.919825,0.919439 2.141192,1.427677 3.443512,1.430449 1.302173,-0.0011 2.523616,-0.505606 3.446214,-1.425345 0.608829,-0.609004 1.597302,-0.604504 2.20375,0.003 l 2.379874,2.386096 c 2.9e-4,9.55e-4 2.9e-4,9.55e-4 2.9e-4,9.55e-4 0.270019,0.269974 0.418363,0.630098 0.418112,1.011911 z"
   id="path12056" />
<g
   transform="translate(-21.036957,-14.186801)"
   id="g12061">
</g>
<g
   transform="translate(-21.036957,-14.186801)"
   id="g12063">
</g>
<g
   transform="translate(-21.036957,-14.186801)"
   id="g12065">
</g>
<g
   transform="translate(-21.036957,-14.186801)"
   id="g12067">
</g>
<g
   transform="translate(-21.036957,-14.186801)"
   id="g12069">
</g>
<g
   transform="translate(-21.036957,-14.186801)"
   id="g12071">
</g>
<g
   transform="translate(-21.036957,-14.186801)"
   id="g12073">
</g>
<g
   transform="translate(-21.036957,-14.186801)"
   id="g12075">
</g>
<g
   transform="translate(-21.036957,-14.186801)"
   id="g12077">
</g>
<g
   transform="translate(-21.036957,-14.186801)"
   id="g12079">
</g>
<g
   transform="translate(-21.036957,-14.186801)"
   id="g12081">
</g>
<g
   transform="translate(-21.036957,-14.186801)"
   id="g12083">
</g>
<g
   transform="translate(-21.036957,-14.186801)"
   id="g12085">
</g>
<g
   transform="translate(-21.036957,-14.186801)"
   id="g12087">
</g>
<g
   transform="translate(-21.036957,-14.186801)"
   id="g12089">
</g>
</svg>