<?xml version="1.0" encoding="UTF-8" standalone="no"?>
<svg
   xmlns:dc="http://purl.org/dc/elements/1.1/"
   xmlns:cc="http://creativecommons.org/ns#"
   xmlns:rdf="http://www.w3.org/1999/02/22-rdf-syntax-ns#"
   xmlns:svg="http://www.w3.org/2000/svg"
   xmlns="http://www.w3.org/2000/svg"
   xml:space="preserve"
   style="enable-background:new 0 0 60 60;"
   viewBox="0 0 60 60"
   y="0px"
   x="0px"
   id="Capa_1"
   version="1.1"><metadata
   id="metadata2780"><rdf:RDF><cc:Work
       rdf:about=""><dc:format>image/svg+xml</dc:format><dc:type
         rdf:resource="http://purl.org/dc/dcmitype/StillImage" /><dc:title></dc:title></cc:Work></rdf:RDF></metadata><defs
   id="defs2778" />

<g
   id="g2745">
</g>
<g
   id="g2747">
</g>
<g
   id="g2749">
</g>
<g
   id="g2751">
</g>
<g
   id="g2753">
</g>
<g
   id="g2755">
</g>
<g
   id="g2757">
</g>
<g
   id="g2759">
</g>
<g
   id="g2761">
</g>
<g
   id="g2763">
</g>
<g
   id="g2765">
</g>
<g
   id="g2767">
</g>
<g
   id="g2769">
</g>
<g
   id="g2771">
</g>
<g
   id="g2773">
</g>
<g
   transform="matrix(0.109375,0,0,0.109375,1.9244366,2)"
   id="g3142"><g
     id="g3049">
	<g
   id="g3047">
		<path
   d="m 478.072,111.035 h -44.414 c -5.11,0 -9.253,4.142 -9.253,9.253 0,5.111 4.143,9.253 9.253,9.253 h 44.414 c 8.504,0 15.422,6.918 15.422,15.422 V 441.06 c 0,4.223 -1.674,8.165 -4.714,11.099 -2.886,2.786 -6.645,4.307 -10.645,4.323 -0.021,0 -0.042,0 -0.062,0 h -0.105 c -0.154,-0.001 -0.31,-0.005 -0.466,-0.01 -8.19,-0.292 -14.852,-7.471 -14.852,-16.004 V 181.975 c 0,-18.707 -15.219,-33.928 -33.928,-33.928 H 413.3 V 70.939 c 0,-18.707 -15.219,-33.928 -33.928,-33.928 H 132.627 c -18.708,0 -33.928,15.219 -33.928,33.928 v 40.096 H 83.277 c -18.708,0 -33.928,15.219 -33.928,33.928 v 22.207 c 0,5.111 4.143,9.253 9.253,9.253 5.11,0 9.253,-4.142 9.253,-9.253 v -22.207 c 0,-8.504 6.918,-15.422 15.422,-15.422 h 15.422 v 55.518 H 33.928 C 15.219,185.06 0,200.279 0,218.987 V 441.06 c 0,18.708 15.219,33.928 33.928,33.928 h 443.939 c 0.075,0 0.149,10e-4 0.225,10e-4 8.837,-10e-4 17.155,-3.353 23.541,-9.515 C 508.317,459.022 512,450.351 512,441.06 V 144.963 c 0,-18.708 -15.219,-33.928 -33.928,-33.928 z M 117.205,70.939 c 0,-8.504 6.918,-15.422 15.422,-15.422 h 246.747 c 8.504,0 15.422,6.918 15.422,15.422 v 77.108 h -54.262 c -18.642,0 -36.63,7.817 -49.351,21.446 -9.233,9.892 -22.29,15.566 -35.823,15.566 H 117.205 Z M 33.928,456.48 v 10e-4 c -8.504,0 -15.422,-6.918 -15.422,-15.422 V 218.987 c 0,-8.504 6.918,-15.422 15.422,-15.422 H 255.36 c 18.643,0 36.63,-7.817 49.351,-21.446 9.234,-9.893 22.291,-15.566 35.823,-15.566 h 88.19 c 8.504,0 15.422,6.918 15.422,15.422 v 258.492 c 0,5.785 1.376,11.232 3.82,16.013 H 33.928 Z"
   id="path3045" />
	</g>
</g><g
     id="g3055">
	<g
   id="g3053">
		<path
   d="M 354.699,74.023 H 157.301 c -5.11,0 -9.253,4.142 -9.253,9.253 0,5.111 4.143,9.253 9.253,9.253 h 197.398 c 5.11,0 9.253,-4.142 9.253,-9.253 0,-5.111 -4.143,-9.253 -9.253,-9.253 z"
   id="path3051" />
	</g>
</g><g
     id="g3061">
	<g
   id="g3059">
		<path
   d="M 354.699,111.035 H 157.301 c -5.11,0 -9.253,4.142 -9.253,9.253 0,5.111 4.143,9.253 9.253,9.253 h 197.398 c 5.11,0 9.253,-4.142 9.253,-9.253 0,-5.111 -4.143,-9.253 -9.253,-9.253 z"
   id="path3057" />
	</g>
</g><g
     id="g3067">
	<g
   id="g3065">
		<path
   d="M 259.084,148.048 H 157.301 c -5.204,0 -9.405,4.296 -9.249,9.537 0.152,5.065 4.57,8.969 9.637,8.969 h 101.396 c 5.11,0 9.253,-4.143 9.253,-9.253 0,-5.11 -4.144,-9.253 -9.254,-9.253 z"
   id="path3063" />
	</g>
</g><g
     id="g3073">
	<g
   id="g3071">
		<path
   d="m 286.843,283.758 h -9.253 v -9.253 c 0,-15.306 -12.452,-27.759 -27.759,-27.759 h -12.337 c -15.307,0 -27.759,12.453 -27.759,27.759 v 9.253 h -9.253 c -15.307,0 -27.759,12.453 -27.759,27.759 v 12.337 c 0,15.306 12.452,27.759 27.759,27.759 h 9.253 v 9.253 c 0,15.306 12.452,27.759 27.759,27.759 h 12.337 c 5.11,0 9.253,-4.142 9.253,-9.253 0,-5.111 -4.143,-9.253 -9.253,-9.253 h -12.337 c -5.103,0 -9.253,-4.15 -9.253,-9.253 V 342.36 c 0,-5.111 -4.143,-9.253 -9.253,-9.253 h -18.506 c -5.103,0 -9.253,-4.15 -9.253,-9.253 v -12.337 c 0,-5.103 4.15,-9.253 9.253,-9.253 h 18.506 c 5.11,0 9.253,-4.142 9.253,-9.253 v -18.506 c 0,-5.103 4.15,-9.253 9.253,-9.253 h 12.337 c 5.103,0 9.253,4.15 9.253,9.253 v 18.506 c 0,5.111 4.143,9.253 9.253,9.253 h 18.506 c 5.103,0 9.253,4.15 9.253,9.253 v 12.337 c 0,5.103 -4.15,9.253 -9.253,9.253 h -18.506 c -5.11,0 -9.253,4.142 -9.253,9.253 v 18.506 c 0,5.111 4.143,9.253 9.253,9.253 5.11,0 9.253,-4.142 9.253,-9.253 v -9.253 h 9.253 c 15.307,0 27.759,-12.453 27.759,-27.759 v -12.337 c 0,-15.307 -12.452,-27.759 -27.759,-27.759 z"
   id="path3069" />
	</g>
</g><g
     id="g3075">
</g><g
     id="g3077">
</g><g
     id="g3079">
</g><g
     id="g3081">
</g><g
     id="g3083">
</g><g
     id="g3085">
</g><g
     id="g3087">
</g><g
     id="g3089">
</g><g
     id="g3091">
</g><g
     id="g3093">
</g><g
     id="g3095">
</g><g
     id="g3097">
</g><g
     id="g3099">
</g><g
     id="g3101">
</g><g
     id="g3103">
</g></g></svg>