<?xml version="1.0" encoding="iso-8859-1"?>
<!-- Generator: Adobe Illustrator 16.0.0, SVG Export Plug-In . SVG Version: 6.00 Build 0)  -->
<!DOCTYPE svg PUBLIC "-//W3C//DTD SVG 1.1//EN" "http://www.w3.org/Graphics/SVG/1.1/DTD/svg11.dtd">
<svg version="1.1" id="Layer_1" xmlns="http://www.w3.org/2000/svg" xmlns:xlink="http://www.w3.org/1999/xlink" x="0px" y="0px"
	 width="140.579px" height="297.557px" viewBox="0 0 140.579 297.557" style="enable-background:new 0 0 140.579 297.557;"
	 xml:space="preserve">
<line style="fill:none;stroke:#000000;stroke-width:4;stroke-miterlimit:10;" x1="69.886" y1="142.557" x2="69.886" y2="297.557"/>
<ellipse style="fill:#00C9FF;stroke:#000000;stroke-width:6;stroke-miterlimit:10;" cx="70.289" cy="72.534" rx="67.289" ry="69.534"/>
<g>
	<g>
		<g>
			<path d="M104.44,79.044c-5.261-5.319-11.521-9.257-18.353-11.641c7.316-5.096,12.123-13.624,12.123-23.268
				c0-15.569-12.525-28.235-27.921-28.235c-15.396,0-27.921,12.667-27.921,28.235c0,9.644,4.806,18.172,12.124,23.268
				c-6.832,2.384-13.093,6.322-18.354,11.641c-9.122,9.225-14.145,21.49-14.145,34.535h7.545c0-22.722,18.281-41.208,40.75-41.208
				c22.469,0,40.75,18.487,40.75,41.208h7.547C118.585,100.534,113.561,88.269,104.44,79.044z M70.289,64.74
				c-11.235,0-20.376-9.243-20.376-20.604s9.141-20.604,20.376-20.604c11.236,0,20.375,9.243,20.375,20.604
				S81.525,64.74,70.289,64.74z"/>
		</g>
	</g>
</g>
</svg>
