<?xml version="1.0" encoding="UTF-8" standalone="no"?>
<svg
   xmlns:dc="http://purl.org/dc/elements/1.1/"
   xmlns:cc="http://creativecommons.org/ns#"
   xmlns:rdf="http://www.w3.org/1999/02/22-rdf-syntax-ns#"
   xmlns:svg="http://www.w3.org/2000/svg"
   xmlns="http://www.w3.org/2000/svg"
   height="12.962301"
   width="36.086113"
   xml:space="preserve"
   enable-background="new 0 0 64 64"
   viewBox="0 0 36.086113 12.962301"
   y="0px"
   x="0px"
   id="Layer_1"
   version="1.1"><metadata
   id="metadata12096"><rdf:RDF><cc:Work
       rdf:about=""><dc:format>image/svg+xml</dc:format><dc:type
         rdf:resource="http://purl.org/dc/dcmitype/StillImage" /><dc:title></dc:title></cc:Work></rdf:RDF></metadata><defs
   id="defs12094">
	
	
</defs>
<path
   style="fill:#ce202f;fill-opacity:0.94117647"
   d="m 6.7981689,12.930823 c 0.9507006,8.9e-5 1.8446386,-0.368663 2.5176114,-1.039031 0.6717618,-0.672142 1.0439217,-1.564944 1.0445627,-2.5163933 0.0026,-0.766626 0.301328,-1.488423 0.842417,-2.029887 0.53573,-0.533326 1.276433,-0.838782 2.032256,-0.83855 l 9.582675,0.01219 c 0.777639,7.29e-4 1.507946,0.304035 2.056634,0.854528 0.548621,0.550602 0.850459,1.28153 0.849224,2.060053 -0.0014,1.9406043 1.576091,3.5212493 3.515739,3.5243663 l 3.408931,0.0042 c 0.916948,0.0011 1.7787,-0.355092 2.427955,-1.001616 0.648855,-0.650022 1.007479,-1.511283 1.00704,-2.4235243 l 0.0029,-0.972475 c -5e-6,-1.755343 -0.577204,-3.495425 -1.628087,-4.899262 C 32.753083,1.3880823 30.037522,0.02591716 27.193876,0.02221666 L 8.9248558,6.3589392e-6 C 6.0734606,-0.00339364 3.3467909,1.3568255 1.6322803,3.6376077 c -0.2490742,0.332051 -0.47232,0.682184 -0.66767336,1.048444 -0.6240867,1.170072 -0.9608115,2.492388 -0.9631044,3.822626 L 2.5404785e-6,9.4907507 C -0.00109746,10.407781 0.35505234,11.269534 1.0029221,11.918374 1.6495175,12.567515 2.5102957,12.924903 3.4264485,12.92542 Z M 2.4181661,10.506007 C 2.1487084,10.234992 1.9996157,9.8755567 2.0003988,9.4962907 l 6.684e-4,-0.984688 C 2.0039672,7.1948957 2.4384924,5.8904597 3.231972,4.8383937 4.5698865,3.0583997 6.6975653,1.997377 8.9229831,2.000003 L 27.191993,2.022216 c 2.21753,0.0029 4.335043,1.0648327 5.66533,2.8413087 0.792588,1.060257 1.228464,2.374074 1.228479,3.697839 l -0.0029,0.97246 c 9.06e-4,0.237251 -0.05679,0.465558 -0.165704,0.6697243 -0.06619,0.124053 -0.151348,0.238085 -0.253634,0.340609 -0.270119,0.269939 -0.630595,0.418586 -1.01195,0.417713 l -3.410234,-0.0038 c -0.836986,-0.0016 -1.518484,-0.6848 -1.516883,-1.5239583 0.0019,-1.310656 -0.507409,-2.545165 -1.434501,-3.4735 -0.926189,-0.927887 -2.159121,-1.440512 -3.470202,-1.441322 l -9.583627,-0.01274 c -1.300555,2.72e-4 -2.523571,0.504531 -3.4464109,1.423451 -0.9199965,0.921552 -1.4269479,2.141981 -1.4289694,3.444712 1.229e-4,0.8611383 -0.7020141,1.5569113 -1.5604075,1.5561643 l -3.3700501,-0.0044 c -8.798e-4,-4.71e-4 -8.798e-4,-4.71e-4 -8.798e-4,-4.71e-4 -0.3818341,3.6e-5 -0.7413721,-0.149723 -1.0111791,-0.419878 z"
   id="path12056" />
<g
   transform="translate(-17.330973,-21.879471)"
   id="g12061">
</g>
<g
   transform="translate(-17.330973,-21.879471)"
   id="g12063">
</g>
<g
   transform="translate(-17.330973,-21.879471)"
   id="g12065">
</g>
<g
   transform="translate(-17.330973,-21.879471)"
   id="g12067">
</g>
<g
   transform="translate(-17.330973,-21.879471)"
   id="g12069">
</g>
<g
   transform="translate(-17.330973,-21.879471)"
   id="g12071">
</g>
<g
   transform="translate(-17.330973,-21.879471)"
   id="g12073">
</g>
<g
   transform="translate(-17.330973,-21.879471)"
   id="g12075">
</g>
<g
   transform="translate(-17.330973,-21.879471)"
   id="g12077">
</g>
<g
   transform="translate(-17.330973,-21.879471)"
   id="g12079">
</g>
<g
   transform="translate(-17.330973,-21.879471)"
   id="g12081">
</g>
<g
   transform="translate(-17.330973,-21.879471)"
   id="g12083">
</g>
<g
   transform="translate(-17.330973,-21.879471)"
   id="g12085">
</g>
<g
   transform="translate(-17.330973,-21.879471)"
   id="g12087">
</g>
<g
   transform="translate(-17.330973,-21.879471)"
   id="g12089">
</g>
</svg>