<?xml version="1.0" encoding="UTF-8" standalone="no"?>
<!-- Generator: Adobe Illustrator 19.0.0, SVG Export Plug-In . SVG Version: 6.00 Build 0)  -->

<svg
   xmlns:dc="http://purl.org/dc/elements/1.1/"
   xmlns:cc="http://creativecommons.org/ns#"
   xmlns:rdf="http://www.w3.org/1999/02/22-rdf-syntax-ns#"
   xmlns:svg="http://www.w3.org/2000/svg"
   xmlns="http://www.w3.org/2000/svg"
   xmlns:sodipodi="http://sodipodi.sourceforge.net/DTD/sodipodi-0.dtd"
   xmlns:inkscape="http://www.inkscape.org/namespaces/inkscape"
   version="1.1"
   id="Capa_1"
   x="0px"
   y="0px"
   viewBox="0 0 58 58"
   style="enable-background:new 0 0 58 58;"
   xml:space="preserve"
   sodipodi:docname="microphone_disabled.svg"
   inkscape:version="0.92.4 (5da689c313, 2019-01-14)"><metadata
   id="metadata2842"><rdf:RDF><cc:Work
       rdf:about=""><dc:format>image/svg+xml</dc:format><dc:type
         rdf:resource="http://purl.org/dc/dcmitype/StillImage" /><dc:title></dc:title></cc:Work></rdf:RDF></metadata><defs
   id="defs2840">
	
	
</defs><sodipodi:namedview
   pagecolor="#ffffff"
   bordercolor="#666666"
   borderopacity="1"
   objecttolerance="10"
   gridtolerance="10"
   guidetolerance="10"
   inkscape:pageopacity="0"
   inkscape:pageshadow="2"
   inkscape:window-width="1912"
   inkscape:window-height="1022"
   id="namedview2838"
   showgrid="false"
   inkscape:zoom="11.508772"
   inkscape:cx="22.16918"
   inkscape:cy="29"
   inkscape:window-x="0"
   inkscape:window-y="24"
   inkscape:window-maximized="0"
   inkscape:current-layer="Capa_1" />
<path
   inkscape:connector-curvature="0"
   id="path2801"
   d="m 44,28 c -0.552,0 -1,0.447 -1,1 v 6 C 43,42.72 36.72,49 29,49 21.28,49 15,42.72 15,35 v -6 c 0,-0.553 -0.448,-1 -1,-1 -0.552,0 -1,0.447 -1,1 v 6 c 0,8.485 6.644,15.429 15,15.949 V 56 h -5 c -0.552,0 -1,0.447 -1,1 0,0.553 0.448,1 1,1 h 12 c 0.552,0 1,-0.447 1,-1 0,-0.553 -0.448,-1 -1,-1 H 30 V 50.949 C 38.356,50.429 45,43.484 45,35 v -6 c 0,-0.553 -0.448,-1 -1,-1 z"
   style="fill:#b9b9b9;fill-opacity:1" /><path
   style="fill:#f2f2f2;fill-opacity:1;stroke:none;stroke-width:1px;stroke-linecap:butt;stroke-linejoin:miter;stroke-opacity:1"
   d="m 28.673779,1.086893 -5.821646,1.911585 -3.73628,5.300305 -0.347561,10.774389 0.347561,13.033536 0.347561,6.429878 2.954268,4.083841 4.865853,2.346037 4.344512,-0.260671 4.778964,-3.214939 2.432926,-4.257621 0.347561,-7.21189 0.08689,-18.855182 -2.432926,-5.821647 -4.518293,-3.64939 -2.519817,-0.78201204 z"
   id="path7092"
   inkscape:connector-curvature="0" /><path
   inkscape:connector-curvature="0"
   id="path2803"
   d="m 29,46 c 6.065,0 11,-4.935 11,-11 V 11 C 40,4.935 35.065,0 29,0 22.935,0 18,4.935 18,11 v 24 c 0,6.065 4.935,11 11,11 z M 20,11 c 0,-4.963 4.038,-9 9,-9 4.962,0 9,4.037 9,9 v 24 c 0,4.963 -4.038,9 -9,9 -4.962,0 -9,-4.037 -9,-9 z"
   style="fill:#b9b9b9;fill-opacity:1" />
<g
   id="g2807">
</g>
<g
   id="g2809">
</g>
<g
   id="g2811">
</g>
<g
   id="g2813">
</g>
<g
   id="g2815">
</g>
<g
   id="g2817">
</g>
<g
   id="g2819">
</g>
<g
   id="g2821">
</g>
<g
   id="g2823">
</g>
<g
   id="g2825">
</g>
<g
   id="g2827">
</g>
<g
   id="g2829">
</g>
<g
   id="g2831">
</g>
<g
   id="g2833">
</g>
<g
   id="g2835">
</g>
</svg>