<?xml version="1.0" encoding="iso-8859-1"?>
<!-- Generator: Adobe Illustrator 16.0.0, SVG Export Plug-In . SVG Version: 6.00 Build 0)  -->
<!DOCTYPE svg PUBLIC "-//W3C//DTD SVG 1.1//EN" "http://www.w3.org/Graphics/SVG/1.1/DTD/svg11.dtd">
<svg version="1.1" id="Layer_1" xmlns="http://www.w3.org/2000/svg" xmlns:xlink="http://www.w3.org/1999/xlink" x="0px" y="0px"
	 width="140.579px" height="145.067px" viewBox="0 0 140.579 145.067" style="enable-background:new 0 0 140.579 145.067;"
	 xml:space="preserve">
<ellipse style="fill:#F8E700;stroke:#000000;stroke-width:6;stroke-miterlimit:10;" cx="70.289" cy="72.534" rx="67.289" ry="69.534"/>
<g>
	<g>
		<path d="M70.29,20.882L26.287,48.813h88.006L70.29,20.882z M95.041,54.399l2.751,5.586v33.518h11V59.986l2.75-5.586H95.041z
			 M73.04,54.399l2.75,5.586v33.518h11.001V59.986l2.75-5.586H73.04z M51.038,54.399l2.75,5.586v33.518h11.001V59.986l2.75-5.586
			H51.038z M29.037,54.399l2.75,5.586v33.518h11.001V59.986l2.75-5.586H29.037z M29.037,99.089l-2.75,11.173h88.006l-2.751-11.173
			H29.037z M75.79,37.641c0,3.085-2.462,5.586-5.5,5.586c-3.038,0-5.5-2.5-5.5-5.586s2.462-5.586,5.5-5.586
			C73.327,32.055,75.79,34.555,75.79,37.641z"/>
	</g>
</g>
</svg>
