<?xml version="1.0" encoding="iso-8859-1"?>
<!-- Generator: Adobe Illustrator 16.0.0, SVG Export Plug-In . SVG Version: 6.00 Build 0)  -->
<!DOCTYPE svg PUBLIC "-//W3C//DTD SVG 1.1//EN" "http://www.w3.org/Graphics/SVG/1.1/DTD/svg11.dtd">
<svg version="1.1" id="Layer_1" xmlns="http://www.w3.org/2000/svg" xmlns:xlink="http://www.w3.org/1999/xlink" x="0px" y="0px"
	 width="140.579px" height="297.557px" viewBox="0 0 140.579 297.557" style="enable-background:new 0 0 140.579 297.557;"
	 xml:space="preserve">
<line style="fill:none;stroke:#000000;stroke-width:4;stroke-miterlimit:10;" x1="69.886" y1="142.557" x2="69.886" y2="297.557"/>
<ellipse style="fill:#00F5B2;stroke:#000000;stroke-width:6;stroke-miterlimit:10;" cx="70.289" cy="72.534" rx="67.289" ry="69.534"/>
<g>
	<g>
		<g>
			<path d="M108.562,99.738L76.566,66.447L39.185,27.553h-2.921l-0.596,1.577c-1.574,4.163-2.248,8.42-1.944,12.313
				c0.344,4.435,1.963,8.275,4.683,11.106l29.183,30.363l3.85-4.005l26.977,31.388c2.685,2.792,7.304,2.958,10.147,0
				C111.359,107.384,111.359,102.648,108.562,99.738z"/>
		</g>
	</g>
	<g>
		<g>
			<path d="M54.065,75.879l-22.855,23.78c-2.796,2.911-2.796,7.646,0,10.557c2.657,2.765,7.255,3.009,10.146,0l22.855-23.78
				L54.065,75.879z"/>
		</g>
	</g>
	<g>
		<g>
			<path d="M107.219,41.689L94.253,55.178l-3.383-3.519l12.966-13.489l-3.382-3.52L87.491,48.14l-3.383-3.519l12.964-13.489
				l-3.383-3.519L76.78,45.207c-2.07,2.153-3.304,5.011-3.479,8.048c-0.044,0.77-0.212,1.527-0.49,2.247l10.985,11.43
				c0.692-0.29,1.418-0.464,2.158-0.51c2.921-0.181,5.666-1.467,7.734-3.619L110.6,45.208L107.219,41.689z"/>
		</g>
	</g>
</g>
</svg>
