<?xml version="1.0" encoding="iso-8859-1"?>
<!-- Generator: Adobe Illustrator 16.0.0, SVG Export Plug-In . SVG Version: 6.00 Build 0)  -->
<!DOCTYPE svg PUBLIC "-//W3C//DTD SVG 1.1//EN" "http://www.w3.org/Graphics/SVG/1.1/DTD/svg11.dtd">
<svg version="1.1" id="Layer_1" xmlns="http://www.w3.org/2000/svg" xmlns:xlink="http://www.w3.org/1999/xlink" x="0px" y="0px"
	 width="140.579px" height="297.557px" viewBox="0 0 140.579 297.557" style="enable-background:new 0 0 140.579 297.557;"
	 xml:space="preserve">
<line style="fill:none;stroke:#000000;stroke-width:4;stroke-miterlimit:10;" x1="69.886" y1="142.557" x2="69.886" y2="297.557"/>
<ellipse style="fill:#9C5CDF;stroke:#000000;stroke-width:6;stroke-miterlimit:10;" cx="70.289" cy="72.534" rx="67.289" ry="69.534"/>
<g>
	<g>
		<path d="M30.52,53.817h2.598v16.039H30.52c-1.437,0-2.599-1.189-2.599-2.672V56.489C27.921,55.019,29.083,53.817,30.52,53.817z
			 M108.457,53.817h-2.599v16.039h2.599c1.438,0,2.6-1.189,2.6-2.672V56.489C111.056,55.019,109.896,53.817,108.457,53.817z
			 M100.664,48.471v48.124c0,2.956-2.323,5.347-5.194,5.347v5.347c0,2.958-2.323,5.347-5.196,5.347h-5.197
			c-2.875,0-5.196-2.395-5.196-5.347v-5.347H59.098v5.347c0,2.958-2.324,5.347-5.196,5.347h-5.194c-2.873,0-5.196-2.395-5.196-5.347
			v-5.347c-2.872,0-5.197-2.395-5.197-5.347V48.471c-0.002-8.856,6.982-16.04,15.587-16.04h31.176
			C93.681,32.431,100.664,39.613,100.664,48.471z M59.098,43.125h20.784v-5.347H59.098V43.125z M53.902,91.249
			c0-2.959-2.324-5.346-5.194-5.346c-2.872,0-5.196,2.39-5.196,5.346c0,2.954,2.324,5.348,5.196,5.348
			C51.577,96.596,53.902,94.2,53.902,91.249z M95.469,91.249c0-2.959-2.323-5.346-5.196-5.346c-2.876,0-5.197,2.39-5.197,5.346
			c0,2.954,2.327,5.348,5.197,5.348C93.146,96.596,95.469,94.2,95.469,91.249z M95.469,48.471h-51.96v32.083h51.96V48.471
			L95.469,48.471z"/>
	</g>
</g>
</svg>
