<?xml version="1.0" encoding="iso-8859-1"?>
<!-- Generator: Adobe Illustrator 16.0.0, SVG Export Plug-In . SVG Version: 6.00 Build 0)  -->
<!DOCTYPE svg PUBLIC "-//W3C//DTD SVG 1.1//EN" "http://www.w3.org/Graphics/SVG/1.1/DTD/svg11.dtd">
<svg version="1.1" id="Capa_1" xmlns="http://www.w3.org/2000/svg" xmlns:xlink="http://www.w3.org/1999/xlink" x="0px" y="0px"
	 width="497px" height="465px" viewBox="234.5 30.5 497 465" style="enable-background:new 234.5 30.5 497 465;"
	 xml:space="preserve">
<g>
	<g>
		<path d="M627.634,327.546c-22.355-22.491-48.964-39.141-77.996-49.22c29.149-20.198,48.924-53.15,51.285-90.783
			c-10.673-0.661-21.37-0.926-32.04-1.631c-3.058,45.265-40.631,81.152-86.383,81.152c-47.746,0-86.59-39.08-86.59-87.117
			c0-45.837,35.369-83.518,80.09-86.873V60.745c-62.418,3.407-112.16,55.568-112.16,119.201c0,40.774,20.428,76.834,51.522,98.38
			c-29.032,10.079-55.641,26.729-77.996,49.22c-38.766,39.004-60.116,90.86-60.116,146.018h32.07
			c0-96.073,77.688-174.234,173.18-174.234c95.49,0,173.18,78.161,173.18,174.234h32.07
			C687.75,418.406,666.399,366.55,627.634,327.546z"/>
	</g>
	<g>
		<g>
			<g>
				<path d="M606.728,106.995h-50.38V56.461c0-2.302-3.115-7.294-9.349-7.294c-6.232,0-9.349,4.992-9.349,7.294v50.535h-50.379
					c-2.295,0-7.271,3.125-7.271,9.377s4.977,9.377,7.271,9.377h50.38v50.535c0,2.301,3.115,7.293,9.349,7.293
					s9.35-4.992,9.35-7.293V125.75h50.379c2.295,0,7.271-3.125,7.271-9.377S609.023,106.995,606.728,106.995z"/>
			</g>
			<g>
			</g>
			<g>
			</g>
			<g>
			</g>
			<g>
			</g>
			<g>
			</g>
			<g>
			</g>
			<g>
			</g>
			<g>
			</g>
			<g>
			</g>
			<g>
			</g>
			<g>
			</g>
			<g>
			</g>
			<g>
			</g>
			<g>
			</g>
			<g>
			</g>
		</g>
		<g>
		</g>
		<g>
		</g>
		<g>
		</g>
		<g>
		</g>
		<g>
		</g>
		<g>
		</g>
		<g>
		</g>
		<g>
		</g>
		<g>
		</g>
		<g>
		</g>
		<g>
		</g>
		<g>
		</g>
		<g>
		</g>
		<g>
		</g>
		<g>
		</g>
	</g>
</g>
</svg>
